<svg xmlns="http://www.w3.org/2000/svg" width="826.231" height="468.641" viewBox="0 0 826.231 468.641">
  <g id="Group_104" data-name="Group 104" transform="translate(-397.275 -109.341)">
    <g id="Group_74" data-name="Group 74" transform="translate(705.394 120.861)">
      <g id="Group_73" data-name="Group 73" transform="translate(0 2.518)">
        <g id="Path_59" data-name="Path 59" transform="translate(-638.803 -120.418)" fill="#fff" stroke-miterlimit="10">
          <path d="M 744.9028930664062 237.8760070800781 C 720.18505859375 214.5585327148438 693.0973510742188 201.8491058349609 674.5558471679688 195.2652282714844 C 663.8322143554688 191.4573822021484 654.7628173828125 189.2477416992188 649.0428466796875 188.0646057128906 C 645.8062744140625 187.3951416015625 643.2648315429688 186.9708099365234 641.5484619140625 186.7154235839844 C 643.4005737304688 181.7271728515625 647.9595336914062 169.5104827880859 652.764404296875 157.1038665771484 C 656.4133911132812 147.6816253662109 659.4873046875 139.9972381591797 661.9006958007812 134.2640838623047 C 663.3259887695312 130.8781890869141 664.5306396484375 128.1513977050781 665.4810791015625 126.1594619750977 C 666.4425659179688 124.1445007324219 666.9823608398438 123.2260360717773 667.2477416992188 122.8245620727539 C 668.2412109375 122.6804122924805 670.5291748046875 122.4180908203125 674.0225830078125 122.4180908203125 C 678.61572265625 122.4180908203125 686.221435546875 122.883171081543 696.3713989257812 125.0988388061523 C 707.8491821289062 127.6043167114258 720.13525390625 131.7845916748047 732.888427734375 137.5234985351562 C 744.09912109375 142.5684356689453 754.0494384765625 148.2080841064453 762.462890625 154.2857208251953 C 769.159912109375 159.1234436035156 774.8986206054688 164.2440643310547 779.51953125 169.5053100585938 C 785.4981079101562 176.3123931884766 787.97412109375 181.4873809814453 788.8016967773438 183.5247344970703 L 744.9028930664062 237.8760070800781 Z" stroke="none"/>
          <path d="M 674.0226440429688 124.4180908203125 C 671.485595703125 124.4180908203125 669.620361328125 124.5604858398438 668.4631958007812 124.6870880126953 C 667.7681884765625 125.9507751464844 666.3035278320312 128.9233245849609 663.426025390625 135.7977447509766 C 661.0151977539062 141.5572509765625 657.9739379882812 149.1795959472656 654.38671875 158.4530639648438 C 650.2972412109375 169.0249786376953 646.4155883789062 179.3761901855469 644.2732543945312 185.1266632080078 C 645.7223510742188 185.3735961914062 647.4575805664062 185.6943817138672 649.4479370117188 186.1060638427734 C 655.2293090820312 187.3019256591797 664.3944091796875 189.5346832275391 675.22509765625 193.3805389404297 C 693.5556640625 199.8894958496094 720.1567993164062 212.3263244628906 744.6962890625 234.9487152099609 L 786.4805908203125 183.2155456542969 C 786.1945190429688 182.6001129150391 785.81640625 181.843505859375 785.3277587890625 180.9646911621094 C 784.0078735351562 178.5910949707031 781.5892944335938 174.8162994384766 777.5625 170.3124847412109 C 773.017578125 165.2291259765625 767.3969116210938 160.277099609375 760.8566284179688 155.5940093994141 C 752.6470947265625 149.7156829833984 742.9610595703125 144.24951171875 732.0677490234375 139.3473358154297 C 719.4407958984375 133.6652526855469 707.287353515625 129.5287780761719 695.9448852539062 127.0528106689453 C 685.9691162109375 124.8751831054688 678.5172729492188 124.4180908203125 674.0226440429688 124.4180908203125 M 674.0226440429688 120.4180908203125 C 684.2951049804688 120.4180908203125 704.5889282226562 122.5955810546875 733.7091674804688 135.6996612548828 C 783.3978881835938 158.0602111816406 791.0687255859375 183.9009552001953 791.0687255859375 183.9009552001953 L 745.0935668945312 240.8229217529297 C 696.9292602539062 194.2992095947266 638.8029174804688 188.3697509765625 638.8029174804688 188.3697509765625 C 638.8029174804688 188.3697509765625 663.2914428710938 121.9539184570312 666.2791137695312 120.9575958251953 C 666.2791137695312 120.9575958251953 668.909423828125 120.4180908203125 674.0226440429688 120.4180908203125 Z" stroke="none" fill="#a0c6f4"/>
        </g>
        <path id="Path_60" data-name="Path 60" d="M645.493,177.728s57.154,5.774,92.371,38.1" transform="translate(-636.958 -104.617)" fill="none" stroke="#2a1e17" stroke-linecap="round" stroke-linejoin="round" stroke-width="1"/>
        <path id="Path_61" data-name="Path 61" d="M684.18,184.5,705.5,143.044l21.914,43.236Z" transform="translate(-626.292 -114.18)" fill="#a0c6f4"/>
        <path id="Path_62" data-name="Path 62" d="M687.43,184.039l21.322-41.459,21.914,43.236Z" transform="translate(-625.396 -114.308)" fill="none" stroke="#2a1e17" stroke-linecap="round" stroke-linejoin="round" stroke-width="1"/>
      </g>
      <path id="Path_63" data-name="Path 63" d="M671.74,118.444s64.084,5.773,103.919,53.114" transform="translate(-629.722 -118.444)" fill="none" stroke="#2a1e17" stroke-linecap="round" stroke-linejoin="round" stroke-width="1"/>
    </g>
    <path id="Path_64" data-name="Path 64" d="M698.666,270.089c-3.517-2.587-5.829-4.322-5.829-4.322.976-1.3,16.4-17.73,25.327-30.969C718.164,234.8,700.106,271.148,698.666,270.089Z" transform="translate(81.489 34.497)" fill="#2a1e17"/>
    <path id="Path_65" data-name="Path 65" d="M526.12,168.592c1.718,2.863,2.481,1.717,7.442,1.336s12.022,3.244,14.5,9.351,1.718,7.06.383,7.824-10.878,1.907-11.259,3.816" transform="translate(35.523 16.243)" fill="none" stroke="#2a1e17" stroke-linecap="round" stroke-linejoin="round" stroke-width="1"/>
    <path id="Path_66" data-name="Path 66" d="M557.524,422.006" transform="translate(44.182 86.111)" fill="#eaecec"/>
    <g id="Group_75" data-name="Group 75" transform="translate(560.524 161.375)">
      <path id="Path_67" data-name="Path 67" d="M631.261,413.677l-4.445-7.514-15.772,26.287,4.14,3.185Z" transform="translate(-501.587 -79.632)" fill="#f9865f"/>
      <path id="Path_68" data-name="Path 68" d="M546,365.232s-8.172-13.288-4.667-19.8l26.073,2.79Z" transform="translate(-521.048 -96.375)" fill="#f9865f"/>
      <path id="Path_69" data-name="Path 69" d="M545.545,365.7l1.561,3.589-4.816,18.785a6.43,6.43,0,0,0,2.027,6.464h0l23.844-35.248a8.2,8.2,0,0,0-1.211-10.6l-5.329-4.95Z" transform="translate(-520.598 -96.842)"/>
      <path id="Path_70" data-name="Path 70" d="M537.43,191c7.467-.177,16.929-.651,15.037-6.328s-8.989-19.87-25.074-15.612c0,0-5.677,4.73,1.419,13.247S537.43,191,537.43,191Z" transform="translate(-525.243 -145.218)" fill="#2a1e33"/>
      <path id="Path_71" data-name="Path 71" d="M574.113,370.529s-12.746-37.631-1.961-54.154c8.9-13.636,37.982,8.545,41.967,11.532l20.807-37.578s-4.8-6.734-16.6-13.329-60.512-26.339-83.407,9.783c-8.462,13.35-8.591,70.638,7.638,92.595Z" transform="translate(-524.133 -118.367)" fill="#7595ec"/>
      <path id="Path_72" data-name="Path 72" d="M565.781,360.519s-12.746-37.631-1.961-54.154c8.9-13.636,37.982,8.545,41.967,11.532" transform="translate(-515.801 -108.358)" fill="none" stroke="#2a1e17" stroke-linecap="round" stroke-linejoin="round" stroke-width="1"/>
      <path id="Path_73" data-name="Path 73" d="M622.358,285c-9.463,9.962-37.52,58.489-43.829,81.682-8.439,31.024-5.265,56.754,41.119,107.135l22.421-32.657s-15.764-23.939-12.821-46.5c4.257-32.644,27.489-64.3,39.243-84.374Z" transform="translate(-511.565 -113.037)" fill="#7595ec"/>
      <path id="Path_74" data-name="Path 74" d="M614.883,288.305l37.3,29.271,11.145-16.946Z" transform="translate(-500.528 -112.126)" fill="#2a1e17"/>
      <path id="Path_75" data-name="Path 75" d="M782.8,264.18q8.724,1.87,13.294,6.646c3.046,3.185,1.661,4.848.554,5.816s-5.4-.138-9.139-3.461S782.8,264.18,782.8,264.18Z" transform="translate(-454.232 -118.777)" fill="#ff8a66"/>
      <path id="Path_76" data-name="Path 76" d="M692.837,265.767c.976-1.3,16.4-17.73,25.327-30.969,0,0,26.986,30.238,29.913,31.214,1.088.362,7.7.276,15.921.191,13.885-.144,32.342-.283,36.427,1.759,6.5,3.252,10.4,4.877,12.03,9.429s2.267,7.525-1.625,7.8c-4.552.325-7.478-5.526-7.478-5.526s-3.72,2.247-13.331,5.852c0,0-34.581,13.426-57.7,6.933C726.01,290.68,692.837,265.767,692.837,265.767Z" transform="translate(-479.036 -126.878)" fill="#f9865f"/>
      <path id="Path_77" data-name="Path 77" d="M529.318,164.539c-2.969,1.13-4.771,2.48-3.054,5.343s2.481,1.717,7.443,1.336,12.022,3.244,14.5,9.351,1.718,7.06.383,7.824-10.878,1.907-11.259,3.816,3.867,7.541,12.645,7.159l2.1-.381s18.461,18.03,21.132,20.7,22.3,15.973,33.12,18.676c8.221,2.056,24.875-.6,34.883-2.548,4.86-.948,8.154-1.732,8.154-1.732s-7.511-13.529-9.037-34.328c0,0-17.968,2.887-29.908,5.506,0,0-27.863-15.533-41.411-22.4,0,0-11.831-14.5-17.365-16.412S533.325,163.012,529.318,164.539Z" transform="translate(-525.145 -146.421)" fill="#f9865f"/>
      <path id="Path_78" data-name="Path 78" d="M617.42,227.621c4.86-.948,8.154-1.732,8.154-1.732s-9.086-11.451-10.611-32.251c0,0-4.108,4.427-2.831,16.207C613.738,224.649,617.42,227.621,617.42,227.621Z" transform="translate(-501.355 -138.227)" fill="#2a1e17"/>
      <path id="Path_79" data-name="Path 79" d="M621.084,192.6s.251,25.417,7.061,36.021l2.443-.977s-32.092,37.542-42.47,62.072c-1.7,4.015,66.628,47.659,76.722,47.047,0,0,33.29-50.809,44.675-65.87l12.237,9.482s24-24.3,25.291-32.937c0,0-23.182-28.208-42.148-36.469s-35.914-22.408-56.287-22.024C630.974,189.28,621.084,192.6,621.084,192.6Z" transform="translate(-507.916 -139.521)" fill="#fff7c9"/>
      <path id="Path_80" data-name="Path 80" d="M695.51,263.815l-12.236-9.483,1.949-5.311Z" transform="translate(-481.672 -122.957)" fill="#2a1e17"/>
      <path id="Path_81" data-name="Path 81" d="M720.1,186.609c-2.142,6.664-8.33,25.941-15.232,28.321s-14.086-.609-14.086-.609l-7.352,3.762c-.82,2.461-6.622,4.58-14.114,4.868-5.548.214-8.926-6.909-7.284-12.067.754-2.368,3.571-14.042,3.571-14.042s5.949-21.894,11.423-26.416,10.618-9,25.226-3.094C724.617,176.377,720.1,186.609,720.1,186.609Z" transform="translate(-487.645 -146.259)" fill="#f9865f"/>
      <path id="Path_82" data-name="Path 82" d="M675.037,191.5c-.982,4.092-5.238,12.276-8.02,10.8s-3.765-5.238-1.8-12.439,3.6-23.569,9.165-26.514,8.02.49,8.02.49-2.454-11.947,4.747-13.584c0,0,2.454-1.147,1.472,7.037a10.963,10.963,0,0,1,11.785-6.547c9,.982,12.112,13.585,12.112,13.585a4.535,4.535,0,0,1,4.747-3.437c4.092,0,10.311,6.056,8.838,12.766,0,0,10.472-3.277,16.041,5.075s4.91,17.513-8.511,21.113c-14.033,3.766-13.912-12.6-16.039-14.731s-4.42-4.582-12.276-1.637-16.039-5.728-16.039-5.728-1.31,10.475-2.619,11.457-3.928,2.291-3.273-2.619,1.473-4.419.982-5.728-2.707-5.441-7.366-1.8C671.763,183.155,675.037,191.5,675.037,191.5Z" transform="translate(-486.935 -150.202)" fill="#2a1e33"/>
      <path id="Path_83" data-name="Path 83" d="M675.259,187.527c-3.122-2.622-5.287-7.243-2.539-11.864s7.242-5.244,8.616-3.5,1.9,4.7.614,8.191" transform="translate(-484.929 -144.394)" fill="none" stroke="#2a1e33" stroke-linecap="round" stroke-linejoin="round" stroke-width="1"/>
      <path id="Path_84" data-name="Path 84" d="M615.036,434.012,616.6,437.6l-4.816,18.785a6.427,6.427,0,0,0,2.027,6.464h0L637.653,427.6a8.2,8.2,0,0,0-1.212-10.6l-5.327-4.95Z" transform="translate(-501.439 -78.008)"/>
      <path id="Path_85" data-name="Path 85" d="M680.042,162.514s-1.826-5.938-7.3-7.5" transform="translate(-484.576 -148.876)" fill="none" stroke="#2a1e33" stroke-linecap="round" stroke-linejoin="round" stroke-width="1"/>
      <line id="Line_14" data-name="Line 14" y1="92.276" x2="66.058" transform="translate(79.454 56.129)" fill="none" stroke="#2a1e17" stroke-linecap="round" stroke-linejoin="round" stroke-width="1"/>
      <path id="Path_86" data-name="Path 86" d="M660.988,199.261c-2.379,3.095-3.464,16.411,7.486,17.276s17.951-3.946,17.951-3.946" transform="translate(-488.248 -136.676)" fill="none" stroke="#2a1e17" stroke-linecap="round" stroke-linejoin="round" stroke-width="1"/>
      <path id="Path_87" data-name="Path 87" d="M546.015,165.9s7.551,10,8.737,13.554" transform="translate(-519.516 -145.874)" fill="none" stroke="#2a1e17" stroke-linecap="round" stroke-linejoin="round" stroke-width="1"/>
      <path id="Path_88" data-name="Path 88" d="M767.636,272.485s5.044,4.154,15.092-1.221c3.643-1.949,1.049-6.561-3.563-5.409s-10.087-.575-10.087-.575" transform="translate(-458.413 -118.474)" fill="none" stroke="#2a1e17" stroke-linecap="round" stroke-linejoin="round" stroke-width="1"/>
      <path id="Path_89" data-name="Path 89" d="M784.158,264.632s4.84,5.646,4.707,9" transform="translate(-453.858 -118.653)" fill="none" stroke="#2a1e17" stroke-linecap="round" stroke-linejoin="round" stroke-width="1"/>
      <path id="Path_90" data-name="Path 90" d="M728.323,265.5s4.376-5.831,9.97-6.231" transform="translate(-469.252 -120.132)" fill="none" stroke="#2a1e17" stroke-linecap="round" stroke-linejoin="round" stroke-width="1"/>
      <path id="Path_91" data-name="Path 91" d="M583.668,205.746s2.555-7.958,10.741-9.421" transform="translate(-509.134 -137.485)" fill="none" stroke="#2a1e17" stroke-linecap="round" stroke-linejoin="round" stroke-width="1"/>
      <path id="Path_92" data-name="Path 92" d="M608.253,298.385l-9.764,18.681s-32.2,54.492-21.275,89.7" transform="translate(-511.537 -109.347)" fill="none" stroke="#2a1e17" stroke-linecap="round" stroke-linejoin="round" stroke-width="1"/>
      <path id="Path_93" data-name="Path 93" d="M623.418,379.84,655.1,325.529s41.524-60.225,45.774-68.722l14.654-27.11" transform="translate(-498.175 -128.285)" fill="none" stroke="#2a1e17" stroke-linecap="round" stroke-linejoin="round" stroke-width="1"/>
      <path id="Path_94" data-name="Path 94" d="M590.993,271.068s56.339,41.076,73.047,43.055" transform="translate(-507.115 -116.878)" fill="none" stroke="#2a1e17" stroke-linecap="round" stroke-linejoin="round" stroke-width="1"/>
      <path id="Path_95" data-name="Path 95" d="M613.953,191.812s-.051,25.777,6.9,36.346" transform="translate(-500.785 -138.73)" fill="none" stroke="#2a1e17" stroke-linecap="round" stroke-linejoin="round" stroke-width="1"/>
      <path id="Path_96" data-name="Path 96" d="M716.738,231.6c-1.769,10.625-25.291,32.937-25.291,32.937" transform="translate(-479.419 -127.761)" fill="none" stroke="#2a1e17" stroke-linecap="round" stroke-linejoin="round" stroke-width="1"/>
    </g>
    <path id="Path_97" data-name="Path 97" d="M706.911,256.121" transform="translate(85.369 40.376)" fill="#2a1e17"/>
    <path id="Path_98" data-name="Path 98" d="M789.613,315.892" transform="translate(108.17 56.855)" fill="#f9865f"/>
    <circle id="Ellipse_6" data-name="Ellipse 6" cx="3.346" cy="3.346" r="3.346" transform="translate(619.011 390.843)" fill="#2a1e17"/>
    <g id="Group_76" data-name="Group 76" transform="translate(553.829 243.813)">
      <path id="Path_99" data-name="Path 99" d="M820.153,391.817l-1.849-12.8,10.915,7.256-5.712,1.246Z" transform="translate(-437.748 -169.553)" fill="none" stroke="#2a1e17" stroke-linecap="round" stroke-linejoin="round" stroke-width="1"/>
      <path id="Path_100" data-name="Path 100" d="M540.428,218.642c-20.683-18.249-54.859,27.257,70.2,172.1,72.142,83.552,128.826,91.046,136.5,61.978,13.776-52.151-35.974-65.334-17.463-44.907,26.919,29.7,103.484,35.976,160.537,8.259,56.3-27.349,21.693-69.821,18.2-72.3" transform="translate(-519.994 -214.823)" fill="none" stroke="#2a1e17" stroke-linecap="round" stroke-linejoin="round" stroke-width="1"/>
      <circle id="Ellipse_7" data-name="Ellipse 7" cx="3.346" cy="3.346" r="3.346" transform="translate(367.77 197.641)" fill="#2a1e17"/>
      <line id="Line_15" data-name="Line 15" y1="55.893" x2="99.165" transform="translate(322.434 172.399)" fill="none" stroke="#2a1e17" stroke-linecap="round" stroke-linejoin="round" stroke-width="1"/>
      <circle id="Ellipse_8" data-name="Ellipse 8" cx="3.346" cy="3.346" r="3.346" transform="translate(19.151 3.178)" fill="#2a1e17"/>
    </g>
    <circle id="Ellipse_9" data-name="Ellipse 9" cx="7.177" cy="7.177" r="7.177" transform="translate(654.451 174.091)" fill="#ff6d66"/>
    <g id="Ellipse_10" data-name="Ellipse 10" transform="translate(528.235 126.525)" fill="none" stroke="#a0c6f4" stroke-miterlimit="10" stroke-width="4">
      <circle cx="3.155" cy="3.155" r="3.155" stroke="none"/>
      <circle cx="3.155" cy="3.155" r="1.155" fill="none"/>
    </g>
    <circle id="Ellipse_11" data-name="Ellipse 11" cx="3.155" cy="3.155" r="3.155" transform="translate(951.002 512.085)" fill="#fad8b0"/>
    <g id="Group_77" data-name="Group 77" transform="translate(861.84 283.542)">
      <path id="Path_101" data-name="Path 101" d="M797.381,326.783l-33.918-15.917a3.521,3.521,0,0,1,.078-6.41l63.1-27.766a3.525,3.525,0,0,1,2.807-.013l43.343,18.6Z" transform="translate(-761.438 -237.577)" fill="#2a1e33"/>
      <path id="Path_102" data-name="Path 102" d="M787.966,282.859c.087,14.035,2.1,52.312,2.1,52.312l75.412-31.5-1.692-53.265a4.58,4.58,0,0,0-6.477-4.022L792.38,275.972A7.518,7.518,0,0,0,787.966,282.859Z" transform="translate(-754.123 -245.966)" fill="#c6cbcb"/>
      <path id="Path_103" data-name="Path 103" d="M789.613,335.155l75.412-31.5-1.692-53.265s-.5-5.815-6.477-4.022" transform="translate(-753.669 -245.95)" fill="none" stroke="#2a1e17" stroke-linecap="round" stroke-linejoin="round" stroke-width="1"/>
      <line id="Line_16" data-name="Line 16" y1="12.035" x2="5.092" transform="translate(72.444 38.888)" fill="none" stroke="#2a1e17" stroke-linecap="round" stroke-linejoin="round" stroke-width="1"/>
      <line id="Line_17" data-name="Line 17" y1="12.035" x2="5.092" transform="translate(77.536 38.888)" fill="none" stroke="#2a1e17" stroke-linecap="round" stroke-linejoin="round" stroke-width="1"/>
    </g>
    <circle id="Ellipse_12" data-name="Ellipse 12" cx="3.155" cy="3.155" r="3.155" transform="translate(541.837 459.43)" fill="#ff6d66"/>
    <circle id="Ellipse_13" data-name="Ellipse 13" cx="4.384" cy="4.384" r="4.384" transform="translate(806.633 473.832)" fill="#ff6d66"/>
    <g id="Group_78" data-name="Group 78" transform="translate(569.556 509.189)">
      <path id="Path_104" data-name="Path 104" d="M540.457,423.023a93.634,93.634,0,0,0,39.84,8.542,1.794,1.794,0,0,1,1.782,2.023l-2.753,21.848a1.8,1.8,0,0,1-1.454,1.544c-5.584,1.049-28.092,4.137-44.928-10.139a1.793,1.793,0,0,1-.56-1.829l5.563-20.827A1.8,1.8,0,0,1,540.457,423.023Z" transform="translate(-532.322 -422.846)" fill="#fff7dc"/>
      <path id="Path_105" data-name="Path 105" d="M540.25,428.018s9.726,13.667,13.195,15.624,22.192-9.2,22.192-9.2" transform="translate(-530.137 -421.42)" fill="none" stroke="#2a1e17" stroke-linecap="round" stroke-linejoin="round" stroke-width="1"/>
      <line id="Line_18" data-name="Line 18" x2="10.218" y2="10.503" transform="translate(32.477 20.316)" fill="none" stroke="#2a1e17" stroke-linecap="round" stroke-linejoin="round" stroke-width="1"/>
      <line id="Line_19" data-name="Line 19" x1="11.951" y2="3.249" transform="translate(6.331 18.292)" fill="none" stroke="#2a1e17" stroke-linecap="round" stroke-linejoin="round" stroke-width="1"/>
    </g>
    <rect id="Rectangle_80" data-name="Rectangle 80" width="11.415" height="11.415" transform="translate(879.137 250.911)" fill="#ffe1c0"/>
    <path id="Path_106" data-name="Path 106" d="M777.675,341.086l3.393,5.877,3.393,5.877H770.89l3.393-5.877Z" transform="translate(103.008 63.801)" fill="#a0c6f4"/>
    <g id="Group_79" data-name="Group 79" transform="translate(606.331 111.087)">
      <path id="Path_107" data-name="Path 107" d="M561.154,144.239l.884-26.679c-.093-2.491.921-3.285,2.456-3.624,7.247-1.6,29.277-6.514,53.239.569,3.1.916,3,2.554,2.947,4.03l-.856,25.435c-.063,1.868-2.014,3.22-4.192,2.9-7-1.024-16.511-1.341-26.174-1.259a148.242,148.242,0,0,0-25.106,2.025C561.975,148.094,561.084,146.323,561.154,144.239Z" transform="translate(-561.15 -110.782)" fill="none" stroke="#2a1e17" stroke-linecap="round" stroke-linejoin="round" stroke-width="1"/>
      <path id="Path_108" data-name="Path 108" d="M567.473,137.478l13.946-16.325,15.439,15.236C591.535,134.655,567.473,137.478,567.473,137.478Z" transform="translate(-559.407 -107.923)" fill="none" stroke="#2a1e17" stroke-linecap="round" stroke-linejoin="round" stroke-width="1"/>
      <path id="Path_109" data-name="Path 109" d="M585.106,129.027,596.381,120l9.5,6.781.357,10.6L592,136.705" transform="translate(-554.545 -108.24)" fill="none" stroke="#2a1e17" stroke-linecap="round" stroke-linejoin="round" stroke-width="1"/>
      <ellipse id="Ellipse_14" data-name="Ellipse 14" cx="2.329" cy="2.746" rx="2.329" ry="2.746" transform="matrix(0.101, -0.995, 0.995, 0.101, 8.442, 13.792)" fill="none" stroke="#2a1e17" stroke-linecap="round" stroke-linejoin="round" stroke-width="1"/>
    </g>
    <g id="Group_80" data-name="Group 80" transform="translate(838.605 489.613)">
      <path id="Path_110" data-name="Path 110" d="M780.631,409.041l9.356,17.276c.985,1.547.637,2.428-.213,3.213-4.008,3.714-16.176,15.023-34.03,19.43-2.306.569-2.852-.508-3.37-1.463l-8.911-16.476a2.531,2.531,0,0,1,1.584-3.4,136.065,136.065,0,0,0,17.094-8.93,109.1,109.1,0,0,0,15.195-10.619C778.677,406.9,779.9,407.691,780.631,409.041Z" transform="translate(-743.224 -407.501)" fill="none" stroke="#2a1e17" stroke-linecap="round" stroke-linejoin="round" stroke-width="1"/>
      <path id="Path_111" data-name="Path 111" d="M773.615,413l-2.79,15.555-15.471-3.938C759.381,423.738,773.615,413,773.615,413Z" transform="translate(-739.879 -405.985)" fill="none" stroke="#2a1e17" stroke-linecap="round" stroke-linejoin="round" stroke-width="1"/>
      <path id="Path_112" data-name="Path 112" d="M764.6,424.421l-3.808,9.923-8.556-.776-4.168-6.6,9.3-4.862" transform="translate(-741.889 -403.474)" fill="none" stroke="#2a1e17" stroke-linecap="round" stroke-linejoin="round" stroke-width="1"/>
      <ellipse id="Ellipse_15" data-name="Ellipse 15" cx="2.021" cy="1.714" rx="2.021" ry="1.714" transform="translate(35.681 18.848) rotate(-24.564)" fill="none" stroke="#2a1e17" stroke-linecap="round" stroke-linejoin="round" stroke-width="1"/>
    </g>
    <g id="Group_83" data-name="Group 83" transform="translate(829.733 149.976)">
      <g id="Group_81" data-name="Group 81" transform="translate(0 34.22)">
        <path id="Path_113" data-name="Path 113" d="M737.006,180.13l38.01,29.092a1.878,1.878,0,0,0,2.652-.376l5.739-7.778a1.878,1.878,0,0,0-.338-2.581L745.6,168.5a1.877,1.877,0,0,0-2.693.365l-6.275,8.671A1.876,1.876,0,0,0,737.006,180.13Z" transform="translate(-736.27 -168.091)" fill="#fff" stroke="#2a1e17" stroke-linecap="round" stroke-linejoin="round" stroke-width="1"/>
        <path id="Path_114" data-name="Path 114" d="M739.053,178.177l9.218,6.468,5.439-6.492-9.22-7.69Z" transform="translate(-735.503 -167.437)" fill="#ff6d66"/>
        <path id="Path_115" data-name="Path 115" d="M749,184.92l9.23,7.323,4.947-6.086-9.291-7.539Z" transform="translate(-732.761 -165.189)" fill="#fad8b0"/>
        <path id="Path_116" data-name="Path 116" d="M758.667,192.9l9.218,6.468,4.39-5.642-8.731-7.307Z" transform="translate(-730.095 -163.037)" fill="#a0c6f4"/>
      </g>
      <g id="Group_82" data-name="Group 82" transform="translate(76.557)">
        <path id="Path_117" data-name="Path 117" d="M796.3,146.853l8.661,72.787a2.875,2.875,0,0,0,3.245,2.509l14.666-2.008a2.875,2.875,0,0,0,2.471-3.127l-7.108-73.15a2.875,2.875,0,0,0-3.279-2.567l-16.217,2.372A2.874,2.874,0,0,0,796.3,146.853Z" transform="translate(-796.282 -141.267)" fill="#fff" stroke="#2a1e17" stroke-linecap="round" stroke-linejoin="round" stroke-width="1"/>
        <path id="Path_118" data-name="Path 118" d="M799.77,147.47l2.745,17.025,12.933-.963L814.042,145.2Z" transform="translate(-795.32 -140.182)" fill="#ff6d66"/>
        <path id="Path_119" data-name="Path 119" d="M802.657,165.718l1.819,17.95,11.964-1.07-1.648-18.249Z" transform="translate(-794.524 -134.903)" fill="#91ba83"/>
        <path id="Path_120" data-name="Path 120" d="M804.261,184.859l2.745,17.025,10.881-1.206-1.3-17.386Z" transform="translate(-794.082 -129.68)" fill="#fad8b0"/>
      </g>
      <path id="Path_121" data-name="Path 121" d="M781.5,159.767l23.986,70.5a2.286,2.286,0,0,0,2.939,1.415l15.024-5.408a2.289,2.289,0,0,0,1.406-2.842l-22.523-71.2a2.287,2.287,0,0,0-2.975-1.456l-16.486,6.106A2.288,2.288,0,0,0,781.5,159.767Z" transform="translate(-723.833 -138.683)" fill="#fff" stroke="#2a1e17" stroke-linecap="round" stroke-linejoin="round" stroke-width="1"/>
      <path id="Path_122" data-name="Path 122" d="M785.295,159.922,791.52,176l12.45-3.631-5.188-17.638Z" transform="translate(-722.754 -137.554)" fill="#a0c6f4"/>
      <path id="Path_123" data-name="Path 123" d="M791.953,177.075l5.513,17.18,11.48-3.534-5.407-17.507Z" transform="translate(-720.918 -132.459)" fill="#f9865f"/>
      <path id="Path_124" data-name="Path 124" d="M797.494,195.472l6.225,16.082,10.392-3.443-4.892-16.735Z" transform="translate(-719.39 -127.451)" fill="#fad8b0"/>
    </g>
    <g id="Group_84" data-name="Group 84" transform="translate(578.521 260.114)">
      <rect id="Rectangle_81" data-name="Rectangle 81" width="135.112" height="30.374" rx="5.484" fill="#7595ec"/>
      <rect id="Rectangle_82" data-name="Rectangle 82" width="70.652" height="4.622" rx="1.812" transform="translate(14.396 8.942)" fill="#fff"/>
      <line id="Line_20" data-name="Line 20" x2="112.252" transform="translate(15.056 19.552)" fill="none" stroke="#2a1e17" stroke-linecap="round" stroke-linejoin="round" stroke-width="1"/>
    </g>
    <g id="Group_85" data-name="Group 85" transform="translate(518.113 190.604)">
      <path id="Rectangle_83" data-name="Rectangle 83" d="M0,0H3.3A1.7,1.7,0,0,1,5,1.7V6.872a1.7,1.7,0,0,1-1.7,1.7H0a0,0,0,0,1,0,0V0A0,0,0,0,1,0,0Z" transform="matrix(0.674, 0.738, -0.738, 0.674, 18.034, 12.374)" fill="#91ba83"/>
      <rect id="Rectangle_84" data-name="Rectangle 84" width="15.856" height="10.93" rx="0.98" transform="matrix(-0.674, -0.738, 0.738, -0.674, 10.694, 19.079)" fill="none" stroke="#2a1e17" stroke-linecap="round" stroke-linejoin="round" stroke-width="1"/>
    </g>
    <g id="Group_86" data-name="Group 86" transform="translate(491.458 237.06)">
      <rect id="Rectangle_85" data-name="Rectangle 85" width="11.317" height="10.333" transform="translate(6.769 6.649)" fill="#ff6d66"/>
      <path id="Path_125" data-name="Path 125" d="M477.872,209.53v6.649H471.1" transform="translate(-471.103 -209.53)" fill="none" stroke="#2a1e17" stroke-linecap="round" stroke-linejoin="round" stroke-width="1"/>
    </g>
    <g id="Group_87" data-name="Group 87" transform="translate(864.282 120.372)">
      <rect id="Rectangle_86" data-name="Rectangle 86" width="11.317" height="10.333" transform="translate(6.769 6.649)" fill="#fad8b0"/>
      <path id="Path_126" data-name="Path 126" d="M770.122,118.06v6.649h-6.769" transform="translate(-763.352 -118.06)" fill="none" stroke="#2a1e17" stroke-linecap="round" stroke-linejoin="round" stroke-width="1"/>
    </g>
    <g id="Group_89" data-name="Group 89" transform="translate(433.529 169.943)">
      <path id="Path_127" data-name="Path 127" d="M554.885,176.142C437.566,127.51,347.248,221.172,568.4,364.6c17.415,11.294,44.119,15.256,44.119,15.256" transform="translate(-423.644 -155.194)" fill="none" stroke="#2a1e17" stroke-linecap="round" stroke-linejoin="round" stroke-width="1"/>
      <circle id="Ellipse_16" data-name="Ellipse 16" cx="3.346" cy="3.346" r="3.346" transform="translate(19.993 20.873)" fill="#2a1e17"/>
      <g id="Group_88" data-name="Group 88">
        <path id="Path_128" data-name="Path 128" d="M427.3,162.27l3.661-3.515,8.417,4.816,4.23,13.053-12.919-5.407Z" transform="translate(-425.251 -156.412)" fill="none" stroke="#2a1e17" stroke-linecap="round" stroke-linejoin="round" stroke-width="1"/>
        <path id="Path_129" data-name="Path 129" d="M431.405,159.261l-3.661,3.515-2.05-2.49,3.515-3.368Z" transform="translate(-425.694 -156.918)" fill="none" stroke="#2a1e17" stroke-linecap="round" stroke-linejoin="round" stroke-width="1"/>
        <line id="Line_21" data-name="Line 21" x1="8.401" y1="9.23" transform="translate(9.958 10.982)" fill="none" stroke="#2a1e17" stroke-linecap="round" stroke-linejoin="round" stroke-width="1"/>
      </g>
    </g>
    <g id="Group_90" data-name="Group 90" transform="translate(472.188 419.795)">
      <path id="Path_130" data-name="Path 130" d="M456.032,357.326l9.12,46.989a1.876,1.876,0,0,0,2.232,1.479l9.456-2.008a1.88,1.88,0,0,0,1.461-2.155l-8.126-47.3a1.877,1.877,0,0,0-2.257-1.516l-10.449,2.319A1.88,1.88,0,0,0,456.032,357.326Z" transform="translate(-455.998 -352.772)" fill="#fff" stroke="#2a1e17" stroke-linecap="round" stroke-linejoin="round" stroke-width="1"/>
      <path id="Path_131" data-name="Path 131" d="M458.351,357.512l2.6,10.956,8.377-1.245-1.792-11.871Z" transform="translate(-455.349 -352.06)" fill="#ff6d66"/>
      <path id="Path_132" data-name="Path 132" d="M461.112,369.236l2.043,11.6,7.74-1.268-1.945-11.806Z" transform="translate(-454.588 -348.638)" fill="#fad8b0"/>
      <path id="Path_133" data-name="Path 133" d="M463.069,381.626l2.6,10.956,7.029-1.305-1.68-11.26Z" transform="translate(-454.048 -345.26)" fill="#a0c6f4"/>
    </g>
    <g id="Group_94" data-name="Group 94" transform="translate(714.599 531.798)">
      <path id="Path_134" data-name="Path 134" d="M660.71,450.886l38.538-10.317,1.47,4.176-38.971,10.116Z" transform="translate(-641.968 -440.569)" fill="none" stroke="#2a1e17" stroke-linecap="round" stroke-linejoin="round" stroke-width="1"/>
      <g id="Group_91" data-name="Group 91" transform="translate(12.31 4.927)">
        <line id="Line_22" data-name="Line 22" x2="1.112" y2="3.499" transform="translate(1.086)" fill="none" stroke="#2a1e17" stroke-linecap="round" stroke-linejoin="round" stroke-width="1"/>
        <line id="Line_23" data-name="Line 23" y1="1.117" x2="3.252" transform="translate(0 1.165)" fill="none" stroke="#2a1e17" stroke-linecap="round" stroke-linejoin="round" stroke-width="1"/>
      </g>
      <g id="Group_92" data-name="Group 92" transform="translate(9.739 18.289)">
        <line id="Line_24" data-name="Line 24" x2="2.097" y2="6.601" transform="translate(1.786)" fill="none" stroke="#2a1e17" stroke-linecap="round" stroke-linejoin="round" stroke-width="1"/>
        <line id="Line_25" data-name="Line 25" y1="1.84" x2="5.79" transform="translate(0 2.345)" fill="none" stroke="#2a1e17" stroke-linecap="round" stroke-linejoin="round" stroke-width="1"/>
      </g>
      <g id="Group_93" data-name="Group 93" transform="translate(0 7.395)">
        <line id="Line_26" data-name="Line 26" x2="2.735" y2="8.742" transform="translate(2.719)" fill="none" stroke="#2a1e17" stroke-linecap="round" stroke-linejoin="round" stroke-width="1"/>
        <line id="Line_27" data-name="Line 27" y1="2.59" x2="8.115" transform="translate(0 2.854)" fill="none" stroke="#2a1e17" stroke-linecap="round" stroke-linejoin="round" stroke-width="1"/>
      </g>
    </g>
    <g id="Group_98" data-name="Group 98" transform="translate(427.964 109.677)">
      <path id="Path_135" data-name="Path 135" d="M445.719,123.477l-24.387-11.009,1.01-2.792,24.527,11.3Z" transform="translate(-421.331 -109.677)" fill="none" stroke="#2a1e17" stroke-linecap="round" stroke-linejoin="round" stroke-width="0.671"/>
      <g id="Group_95" data-name="Group 95" transform="translate(24.245 16.58)">
        <line id="Line_28" data-name="Line 28" y1="2.289" x2="0.909" transform="translate(0.63)" fill="none" stroke="#2a1e17" stroke-linecap="round" stroke-linejoin="round" stroke-width="0.671"/>
        <line id="Line_29" data-name="Line 29" x1="2.163" y1="0.801" transform="translate(0 0.764)" fill="none" stroke="#2a1e17" stroke-linecap="round" stroke-linejoin="round" stroke-width="0.671"/>
      </g>
      <g id="Group_96" data-name="Group 96" transform="translate(30.436 8.41)">
        <line id="Line_30" data-name="Line 30" y1="4.317" x2="1.714" transform="translate(1.083)" fill="none" stroke="#2a1e17" stroke-linecap="round" stroke-linejoin="round" stroke-width="0.671"/>
        <line id="Line_31" data-name="Line 31" x1="3.787" y1="1.504" transform="translate(0 1.399)" fill="none" stroke="#2a1e17" stroke-linecap="round" stroke-linejoin="round" stroke-width="0.671"/>
      </g>
      <g id="Group_97" data-name="Group 97" transform="translate(29.875 16.422)">
        <line id="Line_32" data-name="Line 32" y1="5.7" x2="2.292" transform="translate(1.59)" fill="none" stroke="#2a1e17" stroke-linecap="round" stroke-linejoin="round" stroke-width="0.671"/>
        <line id="Line_33" data-name="Line 33" x1="5.313" y1="2.101" transform="translate(0 1.927)" fill="none" stroke="#2a1e17" stroke-linecap="round" stroke-linejoin="round" stroke-width="0.671"/>
      </g>
    </g>
    <g id="Group_99" data-name="Group 99" transform="translate(483.643 275.073)">
      <path id="Path_136" data-name="Path 136" d="M518.037,293.683c-17.189-12.376-34.078-31.608-26.67-51.364,0,0,11.854-7.9,30.622,1.976l18.767,9.878Z" transform="translate(-458.195 -239.327)" fill="#fad8b0"/>
      <g id="Path_137" data-name="Path 137" transform="translate(-464.4 -238.681)" fill="#fff" stroke-miterlimit="10">
        <path d="M 516.6359252929688 376.0337524414062 C 515.4775390625 375.4982604980469 513.5899047851562 374.5875549316406 511.2327270507812 373.3135375976562 C 507.5479125976562 371.322021484375 501.9276428222656 368.0092468261719 496.0783081054688 363.5370178222656 C 489.5317077636719 358.5316467285156 484.0359191894531 353.1221008300781 479.74365234375 347.4586486816406 C 474.417236328125 340.4306945800781 470.9407958984375 332.9887084960938 469.4109497070312 325.3394165039062 C 467.8785095214844 317.6773681640625 468.4486083984375 308.5817565917969 471.1053771972656 298.3052673339844 C 473.2504577636719 290.0079345703125 476.7500610351562 280.9407958984375 481.5068969726562 271.3557434082031 C 486.0919494628906 262.1169128417969 490.9776611328125 254.1699371337891 494.3783264160156 248.9804229736328 C 493.76611328125 256.0665283203125 495.7806396484375 263.4123840332031 500.4067687988281 270.9099731445312 C 506.659423828125 281.0436706542969 516.3430786132812 289.1979064941406 523.3656005859375 294.2540588378906 C 533.3201904296875 301.4210510253906 540.6063232421875 304.8756408691406 550.7890625 308.677001953125 L 516.6359252929688 376.0337524414062 Z" stroke="none"/>
        <path d="M 492.8777465820312 254.1144714355469 C 489.87158203125 258.9413452148438 486.2778930664062 265.1164245605469 482.8505249023438 272.0225524902344 C 478.1397705078125 281.5146789550781 474.6767578125 290.4837951660156 472.5576171875 298.6807250976562 C 469.9579467773438 308.7364501953125 469.3941040039062 317.6067504882812 470.8817749023438 325.0452270507812 C 472.364501953125 332.4586791992188 475.7399291992188 339.6837768554688 480.9143676757812 346.5198974609375 C 485.1158447265625 352.0706481933594 490.5045776367188 357.3800659179688 496.9309692382812 362.3006896972656 C 502.6979675292969 366.7164306640625 508.2451171875 369.99072265625 511.8830871582031 371.9599304199219 C 513.4899291992188 372.8297119140625 514.8765869140625 373.5287780761719 515.9584350585938 374.052978515625 L 548.6948852539062 309.490234375 C 539.190185546875 305.8646545410156 532.0621337890625 302.3636169433594 522.4891357421875 295.4713439941406 C 515.3558349609375 290.3354187011719 505.5127563476562 282.0418701171875 499.1301879882812 271.6976318359375 C 495.4540405273438 265.7396545410156 493.3675537109375 259.8616333007812 492.8777465820312 254.1144714355469 M 497.5722045898438 241.6729736328125 C 490.1641845703125 261.4285278320312 507.0532836914062 280.6610717773438 524.2420654296875 293.0367431640625 C 534.5562133789062 300.4626159667969 541.775390625 303.7794799804688 552.8881225585938 307.8540649414062 L 517.3278198242188 377.9860229492188 C 517.3278198242188 377.9860229492188 474.8544311523438 360.2052001953125 467.9400634765625 325.6336059570312 C 461.0257568359375 291.0619506835938 497.5722045898438 241.6729736328125 497.5722045898438 241.6729736328125 Z" stroke="none" fill="#fad8b0"/>
      </g>
      <path id="Path_138" data-name="Path 138" d="M483.447,264.171a42.381,42.381,0,0,0,21.965,30.469" transform="translate(-459.885 -232.478)" fill="none" stroke="#2a1e17" stroke-linecap="round" stroke-linejoin="round" stroke-width="1"/>
      <line id="Line_34" data-name="Line 34" x2="19.84" y2="10.629" transform="translate(56.156 69.248)" fill="none" stroke="#2a1e17" stroke-linecap="round" stroke-linejoin="round" stroke-width="1"/>
      <path id="Path_139" data-name="Path 139" d="M485.668,286.389s6.377,14.171,26.926,23.382" transform="translate(-459.272 -226.352)" fill="none" stroke="#2a1e17" stroke-linecap="round" stroke-linejoin="round" stroke-width="1"/>
      <path id="Path_140" data-name="Path 140" d="M472.894,288.055s.708,14.88,10.628,19.84" transform="translate(-462.794 -225.893)" fill="none" stroke="#2a1e17" stroke-linecap="round" stroke-linejoin="round" stroke-width="1"/>
      <path id="Path_141" data-name="Path 141" d="M490.672,247.508s-1.838,19.11,27.069,43.92" transform="translate(-457.899 -237.072)" fill="none" stroke="#2a1e17" stroke-linecap="round" stroke-linejoin="round" stroke-width="1"/>
      <path id="Path_142" data-name="Path 142" d="M499,250.287s9.211-.708,22.674,9.212" transform="translate(-455.597 -236.309)" fill="none" stroke="#2a1e17" stroke-linecap="round" stroke-linejoin="round" stroke-width="1"/>
      <path id="Path_143" data-name="Path 143" d="M465.061,298.111c-.593,9.477.592,43.829,50.343,65.744" transform="translate(-464.977 -223.12)" fill="none" stroke="#2a1e17" stroke-linecap="round" stroke-linejoin="round" stroke-width="1"/>
    </g>
    <g id="Group_100" data-name="Group 100" transform="translate(717.069 330.952)">
      <path id="Path_144" data-name="Path 144" d="M718.634,283.13l-21.1,42.293s14.313,5.267,3.124,21.674c0,0,26.454,10.971,43.764-17.523S718.634,283.13,718.634,283.13Z" transform="translate(-634.286 -283.13)" fill="#91ba83"/>
      <g id="Path_145" data-name="Path 145" transform="translate(-647.955 -273.092)" fill="#fff" stroke-miterlimit="10">
        <path d="M 684.0034790039062 402.7567138671875 C 673.140869140625 402.7567138671875 661.6852416992188 398.2926940917969 649.935546875 389.484375 L 689.8240966796875 323.4054565429688 L 713.5242309570312 338.3293762207031 L 713.6317138671875 338.3970642089844 L 713.7490844726562 338.4457397460938 C 713.96484375 338.53515625 719.116943359375 340.6360168457031 726.4129028320312 340.6365051269531 C 726.4135131835938 340.6365051269531 726.414794921875 340.6365051269531 726.4154052734375 340.6365051269531 C 732.7200317382812 340.6365051269531 740.798583984375 339.0515441894531 748.5137939453125 332.9440002441406 L 718.6461181640625 384.0418701171875 C 718.3748779296875 384.4415283203125 715.2379760742188 388.9742431640625 709.6150512695312 393.4381408691406 C 706.197021484375 396.1516418457031 702.5391845703125 398.3114013671875 698.7431640625 399.857421875 C 694.0203857421875 401.7809143066406 689.0621337890625 402.75634765625 684.006103515625 402.7567138671875 C 684.0054321289062 402.7567138671875 684.0042114257812 402.7567138671875 684.0034790039062 402.7567138671875 Z" stroke="none"/>
        <path d="M 690.3182983398438 325.4892883300781 L 651.9259033203125 389.0897216796875 C 663.0256958007812 397.1658935546875 673.8070068359375 401.2567138671875 684.0062255859375 401.2567138671875 C 688.846923828125 401.2567138671875 693.5955200195312 400.3265380859375 698.1203002929688 398.4920654296875 C 701.7750854492188 397.0103149414062 705.3019409179688 394.93603515625 708.6029052734375 392.326904296875 C 713.9623413085938 388.0906372070312 717.0078125 383.7774658203125 717.3776245117188 383.239501953125 L 743.9634399414062 337.7563171386719 C 737.7005004882812 341.1496276855469 731.5030517578125 342.1365051269531 726.4130249023438 342.1365051269531 C 718.8216552734375 342.1365051269531 713.4014892578125 339.9254455566406 713.1744995117188 339.831298828125 L 712.9398803710938 339.7340087890625 L 712.7249145507812 339.5986938476562 L 690.3182983398438 325.4892883300781 M 758.0879516601562 319.5369262695312 L 719.9175415039062 384.839111328125 C 719.9175415039062 384.839111328125 707.12158203125 404.2567138671875 684.0062255859375 404.2567138671875 C 673.89453125 404.2567138671875 661.810302734375 400.5429077148438 647.9549560546875 389.8628540039062 L 689.3298950195312 321.3216552734375 L 714.323486328125 337.06005859375 C 714.3234252929688 337.0600280761719 740.77783203125 348.0311584472656 758.0879516601562 319.5369262695312 Z" stroke="none" fill="#96bd89"/>
      </g>
      <path id="Path_146" data-name="Path 146" d="M697.531,316.283s15.74,5.557,3.124,21.674" transform="translate(-634.286 -273.989)" fill="none" stroke="#2a1e17" stroke-linecap="round" stroke-linejoin="round" stroke-width="1"/>
      <path id="Path_147" data-name="Path 147" d="M680.005,319.785s21.438,19.638,33.307,19.506,25.786-2.958,34-17.116" transform="translate(-639.119 -273.024)" fill="none" stroke="#2a1e17" stroke-linecap="round" stroke-linejoin="round" stroke-width="1"/>
      <path id="Path_148" data-name="Path 148" d="M682.066,339.7s14.717,13.067,31.172,8.87" transform="translate(-638.55 -267.533)" fill="none" stroke="#2a1e17" stroke-linecap="round" stroke-linejoin="round" stroke-width="1"/>
      <path id="Path_149" data-name="Path 149" d="M694.182,355.007s7.722,5.787,18.514.314" transform="translate(-635.21 -263.313)" fill="none" stroke="#2a1e17" stroke-linecap="round" stroke-linejoin="round" stroke-width="1"/>
      <path id="Path_150" data-name="Path 150" d="M666.341,361.319s17.815,17.716,45.859,6.03" transform="translate(-642.886 -261.573)" fill="none" stroke="#2a1e17" stroke-linecap="round" stroke-linejoin="round" stroke-width="1"/>
      <path id="Path_151" data-name="Path 151" d="M673.94,347.773s7.269,5.2,11.822,6.857" transform="translate(-640.791 -265.307)" fill="none" stroke="#2a1e17" stroke-linecap="round" stroke-linejoin="round" stroke-width="1"/>
      <path id="Path_152" data-name="Path 152" d="M716.914,292.753s16.265,5.32,18.213,26.781" transform="translate(-628.943 -280.477)" fill="none" stroke="#2a1e17" stroke-linecap="round" stroke-linejoin="round" stroke-width="1"/>
      <path id="Path_153" data-name="Path 153" d="M724.439,313.543s7.488,11.587-5.168,23.176" transform="translate(-628.293 -274.745)" fill="none" stroke="#2a1e17" stroke-linecap="round" stroke-linejoin="round" stroke-width="1"/>
      <path id="Path_154" data-name="Path 154" d="M649.137,378.479s40.842,34.979,70.482-5.923" transform="translate(-647.629 -258.475)" fill="none" stroke="#2a1e17" stroke-linecap="round" stroke-linejoin="round" stroke-width="1"/>
    </g>
    <line id="Line_35" data-name="Line 35" x2="9.521" transform="translate(423.78 317.751)" fill="none" stroke="#ff6d66" stroke-linecap="round" stroke-linejoin="round" stroke-width="1"/>
    <line id="Line_36" data-name="Line 36" x2="9.521" transform="translate(954.157 203.236)" fill="none" stroke="#ff6d66" stroke-linecap="round" stroke-linejoin="round" stroke-width="1"/>
    <line id="Line_37" data-name="Line 37" x2="9.521" transform="translate(698.83 137.911)" fill="none" stroke="#fad8b0" stroke-miterlimit="10" stroke-width="1"/>
    <line id="Line_38" data-name="Line 38" x2="9.371" y2="1.683" transform="translate(972.334 252.619)" fill="none" stroke="#fad8b0" stroke-miterlimit="10" stroke-width="1"/>
    <line id="Line_39" data-name="Line 39" x2="9.521" transform="translate(598.331 490.187)" fill="none" stroke="#a0c6f4" stroke-linecap="round" stroke-linejoin="round" stroke-width="1"/>
    <circle id="Ellipse_17" data-name="Ellipse 17" cx="3.155" cy="3.155" r="3.155" transform="translate(989.692 368.345)" fill="#91ba83"/>
    <circle id="Ellipse_18" data-name="Ellipse 18" cx="3.155" cy="3.155" r="3.155" transform="translate(397.275 217.015)" fill="#91ba83"/>
    <circle id="Ellipse_19" data-name="Ellipse 19" cx="3.346" cy="3.346" r="3.346" transform="translate(1026.192 571.291)" fill="#2a1e17"/>
    <circle id="Ellipse_20" data-name="Ellipse 20" cx="3.346" cy="3.346" r="3.346" transform="translate(1216.814 458.342)" fill="#2a1e17"/>
  </g>
</svg>
